<svg version="1.2" xmlns="http://www.w3.org/2000/svg" viewBox="0 0 138 192" width="138" height="192"><defs><clipPath clipPathUnits="userSpaceOnUse" id="cp1"><path d="m5-2h56v193h-56z"/></clipPath><clipPath clipPathUnits="userSpaceOnUse" id="cp2"><path d="m-71.47 183.09l15.99-193.59 193.59 15.98-15.99 193.59z"/></clipPath><clipPath clipPathUnits="userSpaceOnUse" id="cp3"><path d="m-71.47 183.09l15.99-193.59 193.59 15.98-15.99 193.59z"/></clipPath><clipPath clipPathUnits="userSpaceOnUse" id="cp4"><path d="m18 41.2h101v150h-101z"/></clipPath><clipPath clipPathUnits="userSpaceOnUse" id="cp5"><path d="m90 99h41v70h-41z"/></clipPath><clipPath clipPathUnits="userSpaceOnUse" id="cp6"><path d="m149.23 116.2l-17.91 54.9-58.46-19.07 17.9-54.91z"/></clipPath><clipPath clipPathUnits="userSpaceOnUse" id="cp7"><path d="m149.23 116.2l-17.91 54.9-58.46-19.07 17.9-54.91z"/></clipPath><clipPath clipPathUnits="userSpaceOnUse" id="cp8"><path d="m31 113h21v70h-21z"/></clipPath><clipPath clipPathUnits="userSpaceOnUse" id="cp9"><path d="m40.14 185.59l-32.08-39.64 41.97-33.98 32.09 39.64z"/></clipPath><clipPath clipPathUnits="userSpaceOnUse" id="cp10"><path d="m8.17 146.09l32.09 39.64 41.97-33.98-32.09-39.64z"/></clipPath></defs><style>.a{fill:#8f57ff}</style><g clip-path="url(#cp1)"><g clip-path="url(#cp2)"><g clip-path="url(#cp3)"><path fill-rule="evenodd" class="a" d="m25.3 190.4c-3.2-4.5-5.6-9.1-7.6-14-4.7-11.4-6-23.5-4.4-35.3 1.2-8.3 3.8-16.2 7.9-23.6q2.9-5.4 6.8-10.3c2.5-3.2 5.3-6.2 8.5-9 5.8-5.3 10.7-11.2 14.4-17.7 5.6-10 8.7-21.1 9.1-32.3 0.6-17.8-5.6-35.9-18.8-49.9 11.1 14.7 15.2 32.5 12.9 49.4-1.3 10-4.9 19.6-10.7 28.2-3.6 5.4-8.1 10.3-13.4 14.6q-5.7 4.7-10.2 10.2c-3 3.8-5.5 7.9-7.6 12.2-4.2 8.6-6.5 18-6.8 27.5-0.1 5.6 0.4 11.3 1.6 16.8 2.8 12.2 8.8 23.7 18.3 33.2z"/></g></g></g><g clip-path="url(#cp4)"><path  d="m117.1 148.4c-6.2-27.3-27.1-36.6-27.1-36.6 0 0 2.9 5.7 4.5 13.7 1.6 8.4 0.3 18.1-7.2 22.8-4.7 2.9-11.8 2.1-15.9-1.9-4.5-4.3-5.5-11.2-3.5-17 0.7-2.5 2-5 3.5-7.3q0.9-1.4 1.7-2.7l3.6-5.9c14.5-23.3 10.5-53.5-9.5-72.3 0 0 10.1 24.4-16.6 51-12.4 12.4-23.9 26.7-29.2 43.1-3.2 10.2-3.8 21.6 0.3 31.6 4.4 11.1 13.3 19.9 24.3 24.3-37.7-33.9-19-62.2 10.3-89.3 4.9-4.6 12.9 0.2 11 6.7-0.8 2.7-2 5.3-3.6 7.6-8.2 11.5-10.1 26.7 0.5 37.5 4.8 4.9 11.8 7.3 18.7 6.9 8.5-0.7 15-5.7 18.9-12.4 1.4-2.4 5-2 5.8 0.7 0 0 0 0 0 0.1 2.9 12.6 0.2 25.4-8.3 35.4-2.1 2.4-4.4 4.8-6.9 6.8 3.2-0.9 6.3-2.4 9.1-4.3 12.7-8.6 19.1-23.8 15.6-38.5z"/></g><g clip-path="url(#cp5)"><g clip-path="url(#cp6)"><g clip-path="url(#cp7)"><path class="a" d="m90.2 99.4c28.5 6.9 50.7 42.1 35.3 69.5l-0.5-0.2c3.8-28.4-6.5-58.1-35-68.8z"/></g></g></g><g clip-path="url(#cp8)"><g clip-path="url(#cp9)"><g clip-path="url(#cp10)"><path class="a" d="m51.6 113.6c-21.3 14.6-28.6 50.8-7.2 68.5l0.4-0.3c-12.1-22.2-13-50 7.1-67.8z"/></g></g></g><path fill-rule="evenodd" class="a" d="m-30.3 233.9v-21h7.4q2.2 0 3.7 0.7 1.4 0.7 2.2 1.9 0.7 1.2 0.7 2.7 0 2.1-1.1 3.2-1.1 1.2-2.6 1.7 1.1 0.2 2.1 0.9 0.9 0.7 1.5 1.8 0.6 1.1 0.6 2.4 0 1.6-0.8 2.9-0.8 1.3-2.3 2-1.6 0.8-3.8 0.8zm2.6-11.8h4.6q2.1 0 3.1-0.9 1.1-1 1.1-2.7 0-1.6-1.1-2.5-1-1-3.1-1h-4.6zm0 9.7h4.8q2.2 0 3.3-1 1.2-1 1.2-2.8 0-1.8-1.2-2.8-1.3-1.1-3.4-1.1h-4.7z"/><path class="a" d="m-12.4 233.9v-14.9h2.3l0.2 2.9q0.7-1.5 2.1-2.4 1.4-0.8 3.5-0.8v2.6h-0.7q-1.3 0-2.4 0.5-1.1 0.4-1.8 1.5-0.6 1.2-0.6 3.1v7.5z"/><path class="a" d="m0.1 240.5l3.7-8h-0.8l-6-13.5h2.8l4.9 11.6 5.2-11.6h2.6l-9.7 21.5z"/><path fill-rule="evenodd" class="a" d="m20.1 234.3q-1.8 0-3.1-0.7-1.2-0.6-1.8-1.7-0.6-1-0.6-2.2 0-2.3 1.8-3.5 1.7-1.3 4.7-1.3h4v-0.2q0-1.9-1-2.9-1-1-2.7-1-1.5 0-2.6 0.7-1 0.8-1.3 2.2h-2.6q0.2-1.6 1.1-2.8 1-1.1 2.4-1.6 1.4-0.6 3-0.6 3.1 0 4.7 1.6 1.5 1.7 1.5 4.4v9.2h-2.2l-0.1-2.7q-0.7 1.3-1.9 2.2-1.2 0.9-3.3 0.9zm0.4-2.2q1.5 0 2.5-0.7 1-0.8 1.6-2 0.5-1.2 0.5-2.5h-3.8q-2.2 0-3.1 0.8-0.9 0.7-0.9 1.9 0 1.1 0.8 1.8 0.9 0.7 2.4 0.7z"/><path class="a" d="m31.4 233.9v-14.9h2.3l0.2 2.7q0.7-1.4 2-2.2 1.4-0.8 3.1-0.8 2.6 0 4.2 1.6 1.6 1.6 1.6 4.9v8.7h-2.5v-8.4q0-4.7-3.9-4.7-1.9 0-3.2 1.4-1.2 1.4-1.2 4v7.7z"/><path class="a" d="m65.9 234.3q-3.1 0-5.3-1.4-2.3-1.4-3.5-3.8-1.2-2.5-1.2-5.7 0-3.2 1.2-5.6 1.2-2.5 3.5-3.9 2.2-1.4 5.3-1.4 3.6 0 5.9 1.8 2.2 1.7 2.9 4.8h-2.8q-0.5-2-2-3.2-1.5-1.1-4-1.1-2.2 0-3.9 1-1.7 1-2.6 3-0.9 1.9-0.9 4.6 0 2.7 0.9 4.6 0.9 2 2.6 3 1.7 1 3.9 1 2.5 0 4-1.1 1.5-1.2 2-3.1h2.8q-0.7 3-2.9 4.8-2.3 1.7-5.9 1.7z"/><path fill-rule="evenodd" class="a" d="m84.9 234.3q-2.1 0-3.8-1-1.6-1-2.6-2.7-1-1.8-1-4.1 0-2.4 1-4.2 1-1.7 2.7-2.7 1.7-0.9 3.8-0.9 2.1 0 3.8 0.9 1.6 1 2.6 2.7 1 1.8 1 4.2 0 2.3-1 4.1-1 1.7-2.7 2.7-1.7 1-3.8 1zm0-2.2q1.3 0 2.4-0.6 1.1-0.7 1.8-1.9 0.7-1.3 0.7-3.1 0-1.9-0.7-3.1-0.6-1.3-1.8-1.9-1.1-0.7-2.3-0.7-1.3 0-2.4 0.7-1.1 0.6-1.8 1.9-0.7 1.2-0.7 3.1 0 1.8 0.7 3.1 0.7 1.2 1.8 1.9 1.1 0.6 2.3 0.6z"/><path class="a" d="m95.9 233.9v-14.9h2.3l0.2 2.9q0.7-1.5 2.1-2.4 1.4-0.8 3.5-0.8v2.6h-0.7q-1.3 0-2.5 0.5-1.1 0.4-1.7 1.5-0.7 1.2-0.7 3.1v7.5z"/><path fill-rule="evenodd" class="a" d="m113.5 234.3q-2.2 0-3.9-1.1-1.6-1-2.5-2.8-0.9-1.7-0.9-4 0-2.2 0.9-4 0.9-1.7 2.6-2.7 1.6-1 3.9-1 1.8 0 3.2 0.7 1.4 0.8 2.2 2.1v-9.2h2.5v21.6h-2.3l-0.2-2.5q-0.7 1.1-2.1 2-1.3 0.9-3.4 0.9zm0.3-2.2q1.5 0 2.7-0.7 1.1-0.7 1.8-2 0.6-1.3 0.6-2.9 0-1.7-0.6-3-0.7-1.2-1.8-1.9-1.2-0.7-2.7-0.7-1.5 0-2.6 0.7-1.2 0.7-1.8 1.9-0.7 1.3-0.7 3 0 1.6 0.7 2.9 0.6 1.3 1.8 2 1.1 0.7 2.6 0.7z"/><path fill-rule="evenodd" class="a" d="m132.4 234.3q-2.1 0-3.8-1-1.7-1-2.6-2.7-1-1.8-1-4.1 0-2.4 1-4.2 1-1.7 2.7-2.7 1.7-0.9 3.8-0.9 2.1 0 3.7 0.9 1.7 1 2.7 2.7 1 1.8 1 4.2 0 2.3-1 4.1-1 1.7-2.7 2.7-1.7 1-3.8 1zm0-2.2q1.3 0 2.4-0.6 1.1-0.7 1.8-1.9 0.7-1.3 0.7-3.1 0-1.9-0.7-3.1-0.7-1.3-1.8-1.9-1.1-0.7-2.3-0.7-1.3 0-2.4 0.7-1.1 0.6-1.8 1.9-0.7 1.2-0.7 3.1 0 1.8 0.7 3.1 0.7 1.2 1.8 1.9 1 0.6 2.3 0.6z"/><path class="a" d="m147.7 233.9l-5.7-14.9h2.7l4.4 12.5 4.5-12.5h2.6l-5.6 14.9z"/><path fill-rule="evenodd" class="a" d="m164 234.3q-1.9 0-3.1-0.7-1.2-0.6-1.9-1.7-0.6-1-0.6-2.2 0-2.3 1.8-3.5 1.7-1.3 4.7-1.3h4v-0.2q0-1.9-1-2.9-1-1-2.7-1-1.5 0-2.5 0.7-1.1 0.8-1.4 2.2h-2.6q0.2-1.6 1.1-2.8 1-1.1 2.4-1.6 1.4-0.6 3-0.6 3.1 0 4.7 1.6 1.6 1.7 1.6 4.4v9.2h-2.3l-0.1-2.7q-0.7 1.3-1.9 2.2-1.2 0.9-3.2 0.9zm0.4-2.2q1.4 0 2.4-0.7 1.1-0.8 1.6-2 0.5-1.2 0.5-2.5h-3.8q-2.2 0-3.1 0.8-0.9 0.7-0.9 1.9 0 1.1 0.8 1.8 0.9 0.7 2.5 0.7z"/><path  d="m22 253.6l-2.4-9.1h1.7l1.7 7.2 1.9-7.2h1.8l1.9 7.2 1.6-7.2h1.8l-2.4 9.1h-2l-1.8-6.7-1.9 6.7z"/><path  d="m33.2 253.6v-9.1h6v1.3h-4.3v2.5h3.9v1.3h-3.9v2.7h4.3v1.3z"/><path fill-rule="evenodd" d="m40.8 253.6v-9.1h3.6q1.4 0 2.2 0.7 0.7 0.6 0.7 1.6 0 0.9-0.4 1.4-0.5 0.5-1.2 0.7 0.8 0.2 1.3 0.8 0.5 0.6 0.5 1.4 0 1.1-0.8 1.8-0.7 0.7-2.2 0.7zm1.7-5.3h1.7q0.7 0 1.1-0.3 0.4-0.3 0.4-0.9 0-0.6-0.4-0.9-0.4-0.4-1.1-0.4h-1.7zm0 4h1.9q0.7 0 1.1-0.4 0.4-0.3 0.4-1 0-0.6-0.4-0.9-0.4-0.4-1.2-0.4h-1.8z"/><path fill-rule="evenodd" d="m52.1 253.6v-9.1h3q1.7 0 2.7 0.6 1 0.5 1.5 1.6 0.5 1 0.5 2.4 0 1.3-0.5 2.4-0.5 1-1.5 1.5-1 0.6-2.7 0.6zm1.7-1.4h1.4q1.1 0 1.8-0.4 0.6-0.4 0.9-1.1 0.3-0.7 0.3-1.6 0-1-0.3-1.7-0.3-0.7-0.9-1.1-0.7-0.4-1.8-0.4h-1.4z"/><path  d="m61.3 253.6v-9.1h5.9v1.3h-4.3v2.5h3.9v1.3h-3.9v2.7h4.3v1.3z"/><path  d="m71.4 253.6l-3.3-9.1h1.8l2.6 7.4 2.6-7.4h1.7l-3.3 9.1z"/><path  d="m77.9 253.6v-9.1h5.9v1.3h-4.3v2.5h3.9v1.3h-3.9v2.7h4.3v1.3z"/><path  d="m85.4 253.6v-9.1h1.7v7.8h4v1.3z"/><path fill-rule="evenodd" d="m96.8 253.8q-1.3 0-2.4-0.6-1-0.6-1.6-1.7-0.6-1.1-0.6-2.4 0-1.4 0.6-2.5 0.6-1.1 1.6-1.7 1.1-0.5 2.4-0.5 1.4 0 2.4 0.5 1 0.6 1.6 1.7 0.6 1.1 0.6 2.5 0 1.3-0.6 2.4-0.6 1.1-1.6 1.7-1 0.6-2.4 0.6zm0-1.5q1.3 0 2.1-0.9 0.8-0.9 0.8-2.3 0-1.5-0.8-2.4-0.8-0.9-2.1-0.9-1.3 0-2.1 0.9-0.8 0.9-0.7 2.4-0.1 1.4 0.7 2.3 0.8 0.9 2.1 0.9z"/><path fill-rule="evenodd" d="m102.8 253.6v-9.1h3.4q1.1 0 1.8 0.4 0.7 0.3 1.1 1 0.3 0.6 0.3 1.4 0 0.8-0.3 1.4-0.4 0.6-1.1 1-0.7 0.4-1.8 0.4h-1.7v3.5zm1.7-4.9h1.5q0.9 0 1.3-0.3 0.4-0.4 0.4-1.1 0-0.7-0.4-1.1-0.4-0.3-1.3-0.3h-1.5z"/><path  d="m110.7 253.6v-9.1h6v1.3h-4.3v2.5h3.9v1.3h-3.9v2.7h4.3v1.3z"/><path fill-rule="evenodd" d="m118.2 253.6v-9.1h3.4q1.1 0 1.8 0.4v3.4zm5.2-8.7v-0.2h1.4l0.7 1.6q-0.2 0-0.5 0-0.6 3.6-0.6-0.4-0.3-0.7-1-1zm2.4 0.9q1.5-0.4 0.7-1.3c0.7-244.5 1.9 3.8 1.9 3.8h-1.9l-1-2q0.8-0.1 0.3-0.5zm-5.9 3h1.5q0.9 0 1.2-0.4 0.4-0.4 0.4-1.1 0-0.6-0.4-1-0.3-0.4-1.2-0.4h-1.5z"/></svg>