<svg xmlns="http://www.w3.org/2000/svg" xmlns:xlink="http://www.w3.org/1999/xlink" width="500" zoomAndPan="magnify" viewBox="0 0 375 374.999991" height="500" preserveAspectRatio="xMidYMid meet" version="1.0"><defs><g/><clipPath id="78f39ca3ab"><path d="M 142.121094 89.691406 L 232.871094 89.691406 L 232.871094 220 L 142.121094 220 Z M 142.121094 89.691406 " clip-rule="nonzero"/></clipPath></defs><g clip-path="url(#78f39ca3ab)"><path fill="#00bf63" d="M 232.859375 136.90625 C 232.878906 137.894531 232.871094 138.886719 232.832031 139.875 C 232.792969 140.867188 232.722656 141.855469 232.625 142.839844 C 232.523438 143.824219 232.394531 144.808594 232.234375 145.785156 C 232.074219 146.761719 231.882812 147.734375 231.664062 148.699219 C 231.441406 149.667969 231.195312 150.625 230.914062 151.578125 C 230.636719 152.527344 230.328125 153.46875 229.992188 154.398438 C 229.652344 155.332031 229.289062 156.25 228.894531 157.160156 C 228.5 158.070312 228.078125 158.964844 227.628906 159.851562 C 227.179688 160.734375 226.707031 161.601562 226.203125 162.457031 C 225.699219 163.308594 225.171875 164.148438 224.617188 164.96875 C 224.066406 165.789062 223.484375 166.59375 222.882812 167.378906 C 222.277344 168.164062 221.652344 168.933594 221 169.679688 C 220.351562 170.425781 219.675781 171.152344 218.980469 171.859375 C 218.285156 172.5625 217.570312 173.246094 216.832031 173.910156 C 216.09375 174.570312 215.335938 175.210938 214.5625 175.824219 C 213.785156 176.4375 212.988281 177.03125 212.175781 177.597656 C 211.363281 178.160156 210.53125 178.703125 209.6875 179.21875 C 208.839844 179.730469 207.980469 180.222656 207.101562 180.683594 C 206.226562 181.144531 205.335938 181.578125 204.433594 181.984375 C 203.527344 182.394531 202.613281 182.773438 201.6875 183.121094 C 200.761719 183.472656 199.824219 183.796875 198.878906 184.089844 C 197.929688 184.382812 196.976562 184.644531 196.015625 184.878906 C 195.050781 185.113281 194.082031 185.320312 193.105469 185.492188 C 192.132812 185.667969 191.152344 185.8125 190.167969 185.925781 C 189.183594 186.039062 188.195312 186.125 187.207031 186.179688 C 186.21875 186.230469 185.226562 186.253906 184.238281 186.246094 C 183.246094 186.238281 182.257812 186.203125 181.269531 186.132812 C 180.28125 186.066406 179.292969 185.964844 178.3125 185.835938 C 177.328125 185.707031 176.351562 185.550781 175.378906 185.359375 C 174.40625 185.171875 173.441406 184.953125 172.484375 184.703125 C 171.523438 184.453125 170.574219 184.175781 169.632812 183.871094 C 168.6875 183.5625 167.757812 183.226562 166.835938 182.863281 L 166.835938 207.636719 C 166.835938 208.449219 166.757812 209.253906 166.597656 210.046875 C 166.441406 210.84375 166.207031 211.617188 165.894531 212.367188 C 165.585938 213.117188 165.207031 213.828125 164.753906 214.503906 C 164.304688 215.179688 163.792969 215.804688 163.21875 216.378906 C 162.644531 216.949219 162.019531 217.464844 161.34375 217.914062 C 160.671875 218.363281 159.957031 218.746094 159.207031 219.054688 C 158.457031 219.367188 157.6875 219.601562 156.890625 219.757812 C 156.09375 219.917969 155.289062 219.996094 154.480469 219.996094 C 153.667969 219.996094 152.863281 219.917969 152.066406 219.761719 C 151.273438 219.601562 150.5 219.367188 149.75 219.058594 C 149 218.746094 148.285156 218.367188 147.613281 217.914062 C 146.9375 217.464844 146.3125 216.953125 145.738281 216.378906 C 145.164062 215.804688 144.652344 215.179688 144.203125 214.503906 C 143.75 213.828125 143.371094 213.117188 143.058594 212.367188 C 142.75 211.617188 142.515625 210.84375 142.355469 210.050781 C 142.199219 209.253906 142.121094 208.449219 142.121094 207.636719 L 142.121094 160.492188 C 142.121094 159.679688 142.199219 158.878906 142.355469 158.082031 C 142.515625 157.285156 142.75 156.515625 143.058594 155.765625 C 143.371094 155.015625 143.75 154.304688 144.203125 153.628906 C 144.652344 152.953125 145.164062 152.328125 145.738281 151.757812 C 146.3125 151.183594 146.9375 150.671875 147.609375 150.21875 C 148.285156 149.769531 148.996094 149.390625 149.746094 149.078125 C 150.496094 148.769531 151.269531 148.535156 152.0625 148.375 C 152.859375 148.21875 153.664062 148.136719 154.472656 148.136719 C 154.828125 148.136719 155.183594 148.15625 155.53125 148.1875 C 155.894531 148.15625 156.261719 148.136719 156.636719 148.136719 C 157.554688 148.136719 158.460938 148.234375 159.359375 148.433594 C 160.253906 148.636719 161.117188 148.933594 161.945312 149.328125 C 162.773438 149.722656 163.550781 150.203125 164.269531 150.769531 C 164.992188 151.339844 165.640625 151.980469 166.21875 152.695312 C 166.988281 153.65625 167.828125 154.554688 168.738281 155.386719 C 169.648438 156.21875 170.617188 156.972656 171.644531 157.652344 C 172.675781 158.332031 173.75 158.925781 174.871094 159.4375 C 175.996094 159.945312 177.148438 160.367188 178.339844 160.695312 C 179.527344 161.023438 180.734375 161.257812 181.957031 161.394531 C 183.183594 161.535156 184.410156 161.578125 185.644531 161.523438 C 186.875 161.46875 188.09375 161.320312 189.300781 161.074219 C 190.511719 160.828125 191.691406 160.492188 192.847656 160.058594 C 194.003906 159.628906 195.117188 159.109375 196.191406 158.503906 C 197.261719 157.898438 198.28125 157.210938 199.25 156.445312 C 200.214844 155.679688 201.113281 154.839844 201.949219 153.933594 C 202.78125 153.027344 203.539062 152.058594 204.222656 151.03125 C 204.90625 150.003906 205.503906 148.929688 206.015625 147.808594 C 206.53125 146.6875 206.953125 145.535156 207.285156 144.347656 C 207.617188 143.160156 207.855469 141.953125 207.996094 140.730469 C 208.140625 139.503906 208.1875 138.277344 208.136719 137.046875 C 207.652344 124.625 197.441406 114.644531 185.015625 114.433594 C 183.03125 114.398438 181.070312 114.613281 179.140625 115.074219 C 177.207031 115.535156 175.363281 116.230469 173.605469 117.160156 C 171.851562 118.085938 170.238281 119.21875 168.769531 120.558594 C 167.300781 121.894531 166.019531 123.390625 164.929688 125.050781 C 164.375 125.90625 163.726562 126.679688 162.980469 127.371094 C 162.230469 128.066406 161.410156 128.65625 160.519531 129.144531 C 159.625 129.632812 158.683594 130.003906 157.699219 130.257812 C 156.710938 130.515625 155.710938 130.644531 154.691406 130.648438 L 154.367188 130.648438 C 144.632812 130.648438 138.820312 119.851562 144.136719 111.695312 C 144.832031 110.621094 145.570312 109.578125 146.351562 108.566406 C 147.128906 107.550781 147.949219 106.566406 148.804688 105.617188 C 149.664062 104.667969 150.558594 103.753906 151.488281 102.878906 C 152.417969 102 153.382812 101.160156 154.378906 100.355469 C 155.375 99.554688 156.402344 98.792969 157.460938 98.074219 C 158.519531 97.355469 159.601562 96.679688 160.714844 96.042969 C 161.828125 95.410156 162.960938 94.824219 164.121094 94.277344 C 165.277344 93.734375 166.457031 93.238281 167.652344 92.789062 C 168.851562 92.339844 170.066406 91.9375 171.292969 91.585938 C 172.523438 91.230469 173.765625 90.929688 175.019531 90.671875 C 176.273438 90.417969 177.535156 90.214844 178.804688 90.0625 C 180.078125 89.90625 181.351562 89.804688 182.628906 89.75 C 183.90625 89.699219 185.1875 89.695312 186.464844 89.746094 C 187.742188 89.796875 189.015625 89.894531 190.289062 90.046875 C 191.558594 90.195312 192.820312 90.394531 194.074219 90.648438 C 195.328125 90.898438 196.574219 91.199219 197.804688 91.546875 C 199.035156 91.898438 200.25 92.296875 201.449219 92.742188 C 202.648438 93.1875 203.828125 93.679688 204.984375 94.222656 C 206.144531 94.761719 207.28125 95.347656 208.394531 95.976562 C 209.507812 96.609375 210.59375 97.28125 211.65625 98 C 212.714844 98.714844 213.746094 99.472656 214.742188 100.273438 C 215.742188 101.070312 216.710938 101.910156 217.640625 102.785156 C 218.574219 103.660156 219.472656 104.570312 220.332031 105.519531 C 221.191406 106.464844 222.011719 107.445312 222.796875 108.457031 C 223.578125 109.46875 224.320312 110.511719 225.019531 111.582031 C 225.71875 112.652344 226.375 113.75 226.984375 114.875 C 227.597656 116 228.164062 117.144531 228.6875 118.3125 C 229.207031 119.480469 229.679688 120.667969 230.105469 121.875 C 230.535156 123.082031 230.910156 124.300781 231.242188 125.539062 C 231.570312 126.773438 231.851562 128.023438 232.082031 129.28125 C 232.3125 130.539062 232.492188 131.804688 232.621094 133.078125 C 232.75 134.351562 232.828125 135.625 232.859375 136.90625 Z M 232.859375 136.90625 " fill-opacity="1" fill-rule="nonzero"/></g><g fill="#ff914d" fill-opacity="1"><g transform="translate(70.867181, 282.107355)"><g><path d="M 6.015625 -2.703125 L 3 -2.703125 L 2.109375 0 L 0.1875 0 L 3.4375 -8.96875 L 5.6875 -8.96875 L 8.859375 0 L 6.90625 0 Z M 4.53125 -7.4375 L 3.453125 -4.125 L 5.5625 -4.125 Z M 4.53125 -7.4375 "/></g></g></g><g fill="#ff914d" fill-opacity="1"><g transform="translate(86.152475, 282.107355)"><g/></g></g><g fill="#ff914d" fill-opacity="1"><g transform="translate(95.173687, 282.107355)"><g><path d="M 5 -9.15625 C 6.175781 -9.15625 7.09375 -8.867188 7.75 -8.296875 C 8.40625 -7.734375 8.78125 -6.988281 8.875 -6.0625 L 8.890625 -5.921875 L 7.09375 -5.921875 L 7.078125 -6.0625 C 6.835938 -7.226562 6.140625 -7.8125 4.984375 -7.8125 C 4.253906 -7.8125 3.664062 -7.519531 3.21875 -6.9375 C 2.78125 -6.351562 2.5625 -5.550781 2.5625 -4.53125 C 2.5625 -3.445312 2.78125 -2.613281 3.21875 -2.03125 C 3.664062 -1.445312 4.242188 -1.15625 4.953125 -1.15625 C 5.523438 -1.15625 5.984375 -1.316406 6.328125 -1.640625 C 6.671875 -1.960938 6.90625 -2.410156 7.03125 -2.984375 L 7.0625 -3.109375 L 8.84375 -3.109375 L 8.828125 -2.984375 C 8.734375 -2.003906 8.332031 -1.226562 7.625 -0.65625 C 6.925781 -0.09375 6.007812 0.1875 4.875 0.1875 C 3.613281 0.1875 2.59375 -0.226562 1.8125 -1.0625 C 1.039062 -1.894531 0.65625 -3.019531 0.65625 -4.4375 C 0.65625 -5.875 1.0625 -7.019531 1.875 -7.875 C 2.695312 -8.726562 3.738281 -9.15625 5 -9.15625 Z M 5 -9.15625 "/></g></g></g><g fill="#ff914d" fill-opacity="1"><g transform="translate(111.004818, 282.107355)"><g><path d="M 1.296875 -6.078125 C 1.929688 -6.753906 2.8125 -7.09375 3.9375 -7.09375 C 5.0625 -7.09375 5.941406 -6.753906 6.578125 -6.078125 C 7.210938 -5.410156 7.53125 -4.535156 7.53125 -3.453125 C 7.53125 -2.378906 7.210938 -1.503906 6.578125 -0.828125 C 5.941406 -0.148438 5.0625 0.1875 3.9375 0.1875 C 2.8125 0.1875 1.929688 -0.148438 1.296875 -0.828125 C 0.660156 -1.503906 0.34375 -2.378906 0.34375 -3.453125 C 0.34375 -4.535156 0.660156 -5.410156 1.296875 -6.078125 Z M 2.671875 -1.703125 C 2.984375 -1.285156 3.40625 -1.078125 3.9375 -1.078125 C 4.476562 -1.078125 4.898438 -1.285156 5.203125 -1.703125 C 5.515625 -2.128906 5.671875 -2.710938 5.671875 -3.453125 C 5.671875 -4.203125 5.515625 -4.785156 5.203125 -5.203125 C 4.898438 -5.628906 4.476562 -5.84375 3.9375 -5.84375 C 3.40625 -5.84375 2.984375 -5.628906 2.671875 -5.203125 C 2.359375 -4.785156 2.203125 -4.203125 2.203125 -3.453125 C 2.203125 -2.710938 2.359375 -2.128906 2.671875 -1.703125 Z M 2.671875 -1.703125 "/></g></g></g><g fill="#ff914d" fill-opacity="1"><g transform="translate(125.380388, 282.107355)"><g><path d="M 7.546875 -9.5625 L 7.546875 0 L 5.75 0 L 5.75 -1.0625 L 5.21875 -0.296875 C 4.8125 0.0234375 4.21875 0.1875 3.4375 0.1875 C 2.476562 0.1875 1.722656 -0.132812 1.171875 -0.78125 C 0.617188 -1.4375 0.34375 -2.285156 0.34375 -3.328125 C 0.34375 -4.523438 0.660156 -5.453125 1.296875 -6.109375 C 1.929688 -6.765625 2.722656 -7.09375 3.671875 -7.09375 C 4.378906 -7.09375 4.921875 -6.960938 5.296875 -6.703125 L 5.75 -6 L 5.75 -9.5625 Z M 3.953125 -1.078125 C 4.492188 -1.078125 4.925781 -1.257812 5.25 -1.625 C 5.582031 -2 5.75 -2.582031 5.75 -3.375 L 5.75 -3.71875 C 5.75 -4.4375 5.578125 -4.96875 5.234375 -5.3125 C 4.898438 -5.664062 4.492188 -5.84375 4.015625 -5.84375 C 3.484375 -5.84375 3.046875 -5.632812 2.703125 -5.21875 C 2.367188 -4.8125 2.203125 -4.21875 2.203125 -3.4375 C 2.203125 -2.726562 2.359375 -2.15625 2.671875 -1.71875 C 2.992188 -1.289062 3.421875 -1.078125 3.953125 -1.078125 Z M 3.953125 -1.078125 "/></g></g></g><g fill="#ff914d" fill-opacity="1"><g transform="translate(140.262805, 282.107355)"><g><path d="M 1 -9.21875 C 1.1875 -9.394531 1.425781 -9.484375 1.71875 -9.484375 C 2.007812 -9.484375 2.242188 -9.394531 2.421875 -9.21875 C 2.609375 -9.039062 2.703125 -8.816406 2.703125 -8.546875 C 2.703125 -8.253906 2.609375 -8.019531 2.421875 -7.84375 C 2.242188 -7.675781 2.007812 -7.59375 1.71875 -7.59375 C 1.425781 -7.59375 1.1875 -7.675781 1 -7.84375 C 0.820312 -8.019531 0.734375 -8.253906 0.734375 -8.546875 C 0.734375 -8.816406 0.820312 -9.039062 1 -9.21875 Z M 2.609375 0 L 0.8125 0 L 0.8125 -6.921875 L 2.609375 -6.921875 Z M 2.609375 0 "/></g></g></g><g fill="#ff914d" fill-opacity="1"><g transform="translate(150.21973, 282.107355)"><g><path d="M 7.265625 -5.15625 C 7.296875 -4.84375 7.3125 -4.425781 7.3125 -3.90625 L 7.3125 0 L 5.53125 0 L 5.53125 -3.65625 C 5.53125 -4.0625 5.519531 -4.378906 5.5 -4.609375 C 5.4375 -5.429688 4.992188 -5.84375 4.171875 -5.84375 C 3.703125 -5.84375 3.320312 -5.625 3.03125 -5.1875 C 2.75 -4.75 2.609375 -4.070312 2.609375 -3.15625 L 2.609375 0 L 0.8125 0 L 0.8125 -6.921875 L 2.609375 -6.921875 L 2.609375 -5.796875 L 3.140625 -6.609375 C 3.597656 -6.929688 4.15625 -7.09375 4.8125 -7.09375 C 5.539062 -7.09375 6.113281 -6.921875 6.53125 -6.578125 C 6.945312 -6.242188 7.191406 -5.769531 7.265625 -5.15625 Z M 7.265625 -5.15625 "/></g></g></g><g fill="#ff914d" fill-opacity="1"><g transform="translate(164.790238, 282.107355)"><g><path d="M 7.546875 -6.921875 L 7.546875 -1.734375 C 7.546875 -1.085938 7.539062 -0.640625 7.53125 -0.390625 C 7.488281 0.671875 7.144531 1.46875 6.5 2 C 5.851562 2.539062 4.972656 2.8125 3.859375 2.8125 C 2.859375 2.8125 2.070312 2.609375 1.5 2.203125 C 0.9375 1.796875 0.617188 1.207031 0.546875 0.4375 L 0.53125 0.3125 L 2.28125 0.3125 L 2.28125 0.421875 C 2.332031 0.742188 2.5 1 2.78125 1.1875 C 3.0625 1.375 3.429688 1.46875 3.890625 1.46875 C 4.453125 1.46875 4.890625 1.328125 5.203125 1.046875 C 5.523438 0.765625 5.703125 0.351562 5.734375 -0.1875 C 5.742188 -0.363281 5.75 -0.648438 5.75 -1.046875 L 5.75 -1.203125 L 5.21875 -0.4375 C 4.8125 -0.125 4.242188 0.03125 3.515625 0.03125 C 2.546875 0.03125 1.773438 -0.28125 1.203125 -0.90625 C 0.628906 -1.53125 0.34375 -2.351562 0.34375 -3.375 C 0.34375 -4.570312 0.660156 -5.488281 1.296875 -6.125 C 1.929688 -6.769531 2.722656 -7.09375 3.671875 -7.09375 C 4.378906 -7.09375 4.921875 -6.960938 5.296875 -6.703125 L 5.75 -6 L 5.75 -6.921875 Z M 2.671875 -1.84375 C 2.984375 -1.425781 3.410156 -1.21875 3.953125 -1.21875 C 4.492188 -1.21875 4.925781 -1.398438 5.25 -1.765625 C 5.582031 -2.140625 5.75 -2.722656 5.75 -3.515625 L 5.75 -3.71875 C 5.75 -4.4375 5.578125 -4.96875 5.234375 -5.3125 C 4.898438 -5.664062 4.492188 -5.84375 4.015625 -5.84375 C 3.472656 -5.84375 3.035156 -5.648438 2.703125 -5.265625 C 2.367188 -4.878906 2.203125 -4.300781 2.203125 -3.53125 C 2.203125 -2.820312 2.359375 -2.257812 2.671875 -1.84375 Z M 2.671875 -1.84375 "/></g></g></g><g fill="#ff914d" fill-opacity="1"><g transform="translate(179.672655, 282.107355)"><g/></g></g><g fill="#ff914d" fill-opacity="1"><g transform="translate(188.693872, 282.107355)"><g><path d="M 5 -9.15625 C 6.175781 -9.15625 7.09375 -8.867188 7.75 -8.296875 C 8.40625 -7.734375 8.78125 -6.988281 8.875 -6.0625 L 8.890625 -5.921875 L 7.09375 -5.921875 L 7.078125 -6.0625 C 6.835938 -7.226562 6.140625 -7.8125 4.984375 -7.8125 C 4.253906 -7.8125 3.664062 -7.519531 3.21875 -6.9375 C 2.78125 -6.351562 2.5625 -5.550781 2.5625 -4.53125 C 2.5625 -3.445312 2.78125 -2.613281 3.21875 -2.03125 C 3.664062 -1.445312 4.242188 -1.15625 4.953125 -1.15625 C 5.523438 -1.15625 5.984375 -1.316406 6.328125 -1.640625 C 6.671875 -1.960938 6.90625 -2.410156 7.03125 -2.984375 L 7.0625 -3.109375 L 8.84375 -3.109375 L 8.828125 -2.984375 C 8.734375 -2.003906 8.332031 -1.226562 7.625 -0.65625 C 6.925781 -0.09375 6.007812 0.1875 4.875 0.1875 C 3.613281 0.1875 2.59375 -0.226562 1.8125 -1.0625 C 1.039062 -1.894531 0.65625 -3.019531 0.65625 -4.4375 C 0.65625 -5.875 1.0625 -7.019531 1.875 -7.875 C 2.695312 -8.726562 3.738281 -9.15625 5 -9.15625 Z M 5 -9.15625 "/></g></g></g><g fill="#ff914d" fill-opacity="1"><g transform="translate(204.52501, 282.107355)"><g><path d="M 7.265625 -5.15625 C 7.296875 -4.84375 7.3125 -4.425781 7.3125 -3.90625 L 7.3125 0 L 5.53125 0 L 5.53125 -3.65625 C 5.53125 -4.0625 5.519531 -4.378906 5.5 -4.609375 C 5.4375 -5.429688 4.992188 -5.84375 4.171875 -5.84375 C 3.703125 -5.832031 3.320312 -5.609375 3.03125 -5.171875 C 2.75 -4.742188 2.609375 -4.070312 2.609375 -3.15625 L 2.609375 0 L 0.8125 0 L 0.8125 -9.625 L 2.609375 -9.625 L 2.609375 -5.796875 L 3.140625 -6.609375 C 3.597656 -6.929688 4.15625 -7.09375 4.8125 -7.09375 C 5.539062 -7.09375 6.113281 -6.921875 6.53125 -6.578125 C 6.945312 -6.242188 7.191406 -5.769531 7.265625 -5.15625 Z M 7.265625 -5.15625 "/></g></g></g><g fill="#ff914d" fill-opacity="1"><g transform="translate(219.095512, 282.107355)"><g><path d="M 4.84375 0 L 4.703125 -1.015625 L 4.375 -0.265625 C 3.914062 0.0351562 3.34375 0.1875 2.65625 0.1875 C 2.019531 0.1875 1.488281 0.0078125 1.0625 -0.34375 C 0.632812 -0.707031 0.421875 -1.203125 0.421875 -1.828125 C 0.421875 -2.597656 0.742188 -3.1875 1.390625 -3.59375 C 2.035156 -4.007812 2.984375 -4.21875 4.234375 -4.21875 L 4.6875 -4.21875 L 4.6875 -4.359375 C 4.6875 -4.628906 4.675781 -4.84375 4.65625 -5 C 4.59375 -5.5625 4.238281 -5.84375 3.59375 -5.84375 C 2.875 -5.84375 2.488281 -5.453125 2.4375 -4.671875 L 0.6875 -4.65625 C 0.71875 -5.414062 1.003906 -6.007812 1.546875 -6.4375 C 2.097656 -6.875 2.800781 -7.09375 3.65625 -7.09375 C 5.375 -7.09375 6.296875 -6.414062 6.421875 -5.0625 C 6.453125 -4.726562 6.46875 -4.367188 6.46875 -3.984375 L 6.46875 -1.75 C 6.46875 -1.226562 6.507812 -0.644531 6.59375 0 Z M 3.34375 -1.078125 C 3.71875 -1.078125 4.035156 -1.207031 4.296875 -1.46875 C 4.554688 -1.726562 4.6875 -2.085938 4.6875 -2.546875 L 4.6875 -3.109375 C 3.082031 -3.222656 2.28125 -2.84375 2.28125 -1.96875 C 2.28125 -1.375 2.632812 -1.078125 3.34375 -1.078125 Z M 3.34375 -1.078125 "/></g></g></g><g fill="#ff914d" fill-opacity="1"><g transform="translate(232.89926, 282.107355)"><g><path d="M 2.5625 -9.5625 L 2.5625 -2.265625 C 2.5625 -1.960938 2.566406 -1.75 2.578125 -1.625 C 2.585938 -1.445312 2.648438 -1.328125 2.765625 -1.265625 C 2.878906 -1.203125 3.082031 -1.179688 3.375 -1.203125 L 3.375 0.03125 C 3.0625 0.0703125 2.695312 0.09375 2.28125 0.09375 C 1.320312 0.09375 0.828125 -0.3125 0.796875 -1.125 C 0.773438 -1.332031 0.765625 -1.695312 0.765625 -2.21875 L 0.765625 -9.5625 Z M 2.5625 -9.5625 "/></g></g></g><g fill="#ff914d" fill-opacity="1"><g transform="translate(243.025141, 282.107355)"><g><path d="M 2.5625 -9.5625 L 2.5625 -2.265625 C 2.5625 -1.960938 2.566406 -1.75 2.578125 -1.625 C 2.585938 -1.445312 2.648438 -1.328125 2.765625 -1.265625 C 2.878906 -1.203125 3.082031 -1.179688 3.375 -1.203125 L 3.375 0.03125 C 3.0625 0.0703125 2.695312 0.09375 2.28125 0.09375 C 1.320312 0.09375 0.828125 -0.3125 0.796875 -1.125 C 0.773438 -1.332031 0.765625 -1.695312 0.765625 -2.21875 L 0.765625 -9.5625 Z M 2.5625 -9.5625 "/></g></g></g><g fill="#ff914d" fill-opacity="1"><g transform="translate(253.151021, 282.107355)"><g><path d="M 7.09375 -3.59375 C 7.09375 -3.34375 7.085938 -3.140625 7.078125 -2.984375 L 2.15625 -2.984375 C 2.257812 -1.710938 2.789062 -1.078125 3.75 -1.078125 C 4.144531 -1.078125 4.46875 -1.179688 4.71875 -1.390625 C 4.976562 -1.597656 5.140625 -1.882812 5.203125 -2.25 L 7 -2.25 C 6.820312 -1.457031 6.441406 -0.851562 5.859375 -0.4375 C 5.273438 -0.0195312 4.5625 0.1875 3.71875 0.1875 C 2.71875 0.1875 1.90625 -0.117188 1.28125 -0.734375 C 0.65625 -1.359375 0.34375 -2.257812 0.34375 -3.4375 C 0.34375 -4.507812 0.664062 -5.382812 1.3125 -6.0625 C 1.957031 -6.75 2.804688 -7.09375 3.859375 -7.09375 C 4.867188 -7.09375 5.660156 -6.757812 6.234375 -6.09375 C 6.804688 -5.425781 7.09375 -4.59375 7.09375 -3.59375 Z M 3.78125 -5.84375 C 2.882812 -5.84375 2.359375 -5.28125 2.203125 -4.15625 L 5.25 -4.15625 C 5.125 -5.28125 4.632812 -5.84375 3.78125 -5.84375 Z M 3.78125 -5.84375 "/></g></g></g><g fill="#ff914d" fill-opacity="1"><g transform="translate(267.162709, 282.107355)"><g><path d="M 7.265625 -5.15625 C 7.296875 -4.84375 7.3125 -4.425781 7.3125 -3.90625 L 7.3125 0 L 5.53125 0 L 5.53125 -3.65625 C 5.53125 -4.0625 5.519531 -4.378906 5.5 -4.609375 C 5.4375 -5.429688 4.992188 -5.84375 4.171875 -5.84375 C 3.703125 -5.84375 3.320312 -5.625 3.03125 -5.1875 C 2.75 -4.75 2.609375 -4.070312 2.609375 -3.15625 L 2.609375 0 L 0.8125 0 L 0.8125 -6.921875 L 2.609375 -6.921875 L 2.609375 -5.796875 L 3.140625 -6.609375 C 3.597656 -6.929688 4.15625 -7.09375 4.8125 -7.09375 C 5.539062 -7.09375 6.113281 -6.921875 6.53125 -6.578125 C 6.945312 -6.242188 7.191406 -5.769531 7.265625 -5.15625 Z M 7.265625 -5.15625 "/></g></g></g><g fill="#ff914d" fill-opacity="1"><g transform="translate(281.733211, 282.107355)"><g><path d="M 7.546875 -6.921875 L 7.546875 -1.734375 C 7.546875 -1.085938 7.539062 -0.640625 7.53125 -0.390625 C 7.488281 0.671875 7.144531 1.46875 6.5 2 C 5.851562 2.539062 4.972656 2.8125 3.859375 2.8125 C 2.859375 2.8125 2.070312 2.609375 1.5 2.203125 C 0.9375 1.796875 0.617188 1.207031 0.546875 0.4375 L 0.53125 0.3125 L 2.28125 0.3125 L 2.28125 0.421875 C 2.332031 0.742188 2.5 1 2.78125 1.1875 C 3.0625 1.375 3.429688 1.46875 3.890625 1.46875 C 4.453125 1.46875 4.890625 1.328125 5.203125 1.046875 C 5.523438 0.765625 5.703125 0.351562 5.734375 -0.1875 C 5.742188 -0.363281 5.75 -0.648438 5.75 -1.046875 L 5.75 -1.203125 L 5.21875 -0.4375 C 4.8125 -0.125 4.242188 0.03125 3.515625 0.03125 C 2.546875 0.03125 1.773438 -0.28125 1.203125 -0.90625 C 0.628906 -1.53125 0.34375 -2.351562 0.34375 -3.375 C 0.34375 -4.570312 0.660156 -5.488281 1.296875 -6.125 C 1.929688 -6.769531 2.722656 -7.09375 3.671875 -7.09375 C 4.378906 -7.09375 4.921875 -6.960938 5.296875 -6.703125 L 5.75 -6 L 5.75 -6.921875 Z M 2.671875 -1.84375 C 2.984375 -1.425781 3.410156 -1.21875 3.953125 -1.21875 C 4.492188 -1.21875 4.925781 -1.398438 5.25 -1.765625 C 5.582031 -2.140625 5.75 -2.722656 5.75 -3.515625 L 5.75 -3.71875 C 5.75 -4.4375 5.578125 -4.96875 5.234375 -5.3125 C 4.898438 -5.664062 4.492188 -5.84375 4.015625 -5.84375 C 3.472656 -5.84375 3.035156 -5.648438 2.703125 -5.265625 C 2.367188 -4.878906 2.203125 -4.300781 2.203125 -3.53125 C 2.203125 -2.820312 2.359375 -2.257812 2.671875 -1.84375 Z M 2.671875 -1.84375 "/></g></g></g><g fill="#ff914d" fill-opacity="1"><g transform="translate(296.615634, 282.107355)"><g><path d="M 7.09375 -3.59375 C 7.09375 -3.34375 7.085938 -3.140625 7.078125 -2.984375 L 2.15625 -2.984375 C 2.257812 -1.710938 2.789062 -1.078125 3.75 -1.078125 C 4.144531 -1.078125 4.46875 -1.179688 4.71875 -1.390625 C 4.976562 -1.597656 5.140625 -1.882812 5.203125 -2.25 L 7 -2.25 C 6.820312 -1.457031 6.441406 -0.851562 5.859375 -0.4375 C 5.273438 -0.0195312 4.5625 0.1875 3.71875 0.1875 C 2.71875 0.1875 1.90625 -0.117188 1.28125 -0.734375 C 0.65625 -1.359375 0.34375 -2.257812 0.34375 -3.4375 C 0.34375 -4.507812 0.664062 -5.382812 1.3125 -6.0625 C 1.957031 -6.75 2.804688 -7.09375 3.859375 -7.09375 C 4.867188 -7.09375 5.660156 -6.757812 6.234375 -6.09375 C 6.804688 -5.425781 7.09375 -4.59375 7.09375 -3.59375 Z M 3.78125 -5.84375 C 2.882812 -5.84375 2.359375 -5.28125 2.203125 -4.15625 L 5.25 -4.15625 C 5.125 -5.28125 4.632812 -5.84375 3.78125 -5.84375 Z M 3.78125 -5.84375 "/></g></g></g><g fill="#ff914d" fill-opacity="1"><g transform="translate(42.507815, 259.730491)"><g><path d="M 5.125 0 L 1.203125 0 L 1.203125 -14.203125 L 6.578125 -14.203125 C 8.773438 -14.203125 10.394531 -13.800781 11.4375 -13 C 12.488281 -12.207031 13.015625 -11.054688 13.015625 -9.546875 C 13.015625 -8.523438 12.738281 -7.644531 12.1875 -6.90625 C 11.644531 -6.175781 10.875 -5.613281 9.875 -5.21875 C 8.875 -4.832031 7.679688 -4.640625 6.296875 -4.640625 L 5.125 -4.640625 Z M 6.703125 -10.984375 L 5.125 -10.984375 L 5.125 -7.875 L 6.5 -7.875 C 7.320312 -7.875 7.953125 -8 8.390625 -8.25 C 8.828125 -8.507812 9.046875 -8.925781 9.046875 -9.5 C 9.046875 -10.007812 8.859375 -10.382812 8.484375 -10.625 C 8.109375 -10.863281 7.515625 -10.984375 6.703125 -10.984375 Z M 6.703125 -10.984375 "/></g></g></g><g fill="#ff914d" fill-opacity="1"><g transform="translate(60.64264, 259.730491)"><g><path d="M -0.78125 0 L 5.484375 -14.203125 L 8.796875 -14.203125 L 14.84375 0 L 10.796875 0 L 9.796875 -2.546875 L 4.296875 -2.546875 L 3.265625 0 Z M 5.65625 -5.84375 L 8.484375 -5.84375 L 7.09375 -9.3125 Z M 5.65625 -5.84375 "/></g></g></g><g fill="#ff914d" fill-opacity="1"><g transform="translate(79.777072, 259.730491)"><g><path d="M 1.203125 0 L 1.203125 -14.203125 L 5.203125 -14.203125 L 5.203125 -3.484375 L 11.125 -3.484375 L 10.875 0 Z M 1.203125 0 "/></g></g></g><g fill="#ff914d" fill-opacity="1"><g transform="translate(95.812732, 259.730491)"><g><path d="M 1.203125 0 L 1.203125 -14.203125 L 5.203125 -14.203125 L 5.203125 0 Z M 1.203125 0 "/></g></g></g><g fill="#ff914d" fill-opacity="1"><g transform="translate(107.210211, 259.730491)"><g><path d="M 10.265625 -14.203125 L 14.09375 -14.203125 L 14.09375 0 L 10.546875 0 L 5.046875 -7.640625 L 5.046875 0 L 1.203125 0 L 1.203125 -14.203125 L 4.765625 -14.203125 L 10.265625 -6.578125 Z M 10.265625 -14.203125 "/></g></g></g><g fill="#ff914d" fill-opacity="1"><g transform="translate(127.504178, 259.730491)"><g><path d="M 1.203125 0 L 1.203125 -14.203125 L 6.203125 -14.203125 C 9.035156 -14.203125 11.175781 -13.601562 12.625 -12.40625 C 14.070312 -11.21875 14.796875 -9.457031 14.796875 -7.125 C 14.796875 -6.09375 14.609375 -5.144531 14.234375 -4.28125 C 13.867188 -3.414062 13.34375 -2.660156 12.65625 -2.015625 C 11.976562 -1.378906 11.175781 -0.882812 10.25 -0.53125 C 9.320312 -0.175781 8.3125 0 7.21875 0 Z M 5.203125 -3.515625 L 6.9375 -3.515625 C 8.207031 -3.515625 9.164062 -3.8125 9.8125 -4.40625 C 10.457031 -5.007812 10.78125 -5.878906 10.78125 -7.015625 C 10.78125 -8.285156 10.4375 -9.210938 9.75 -9.796875 C 9.070312 -10.390625 8.015625 -10.6875 6.578125 -10.6875 L 5.203125 -10.6875 Z M 5.203125 -3.515625 "/></g></g></g><g fill="#ff914d" fill-opacity="1"><g transform="translate(147.83813, 259.730491)"><g><path d="M 13.71875 -3.6875 L 14.640625 -0.59375 C 14.316406 -0.34375 13.890625 -0.144531 13.359375 0 C 12.828125 0.15625 12.285156 0.234375 11.734375 0.234375 C 10.679688 0.234375 9.804688 0.0390625 9.109375 -0.34375 C 8.421875 -0.726562 7.863281 -1.273438 7.4375 -1.984375 L 6.125 -4.203125 C 5.957031 -4.460938 5.800781 -4.660156 5.65625 -4.796875 C 5.507812 -4.929688 5.332031 -5.019531 5.125 -5.0625 L 5.125 0 L 1.203125 0 L 1.203125 -14.203125 L 6 -14.203125 C 8.1875 -14.203125 9.800781 -13.785156 10.84375 -12.953125 C 11.894531 -12.128906 12.421875 -10.984375 12.421875 -9.515625 C 12.421875 -8.472656 12.117188 -7.609375 11.515625 -6.921875 C 10.921875 -6.242188 10.128906 -5.765625 9.140625 -5.484375 C 9.648438 -5.316406 10.050781 -5.015625 10.34375 -4.578125 L 10.703125 -4.046875 C 11.035156 -3.523438 11.546875 -3.265625 12.234375 -3.265625 C 12.492188 -3.265625 12.742188 -3.289062 12.984375 -3.34375 C 13.234375 -3.40625 13.476562 -3.519531 13.71875 -3.6875 Z M 5.953125 -10.984375 L 5.125 -10.984375 L 5.125 -8.15625 L 6.140625 -8.15625 C 7.003906 -8.15625 7.601562 -8.269531 7.9375 -8.5 C 8.28125 -8.738281 8.453125 -9.101562 8.453125 -9.59375 C 8.453125 -10.132812 8.222656 -10.5 7.765625 -10.6875 C 7.304688 -10.882812 6.703125 -10.984375 5.953125 -10.984375 Z M 5.953125 -10.984375 "/></g></g></g><g fill="#ff914d" fill-opacity="1"><g transform="translate(166.552721, 259.730491)"><g><path d="M 7.921875 0.203125 C 6.390625 0.210938 5.066406 -0.0546875 3.953125 -0.609375 C 2.847656 -1.171875 2.003906 -1.976562 1.421875 -3.03125 C 0.835938 -4.09375 0.546875 -5.363281 0.546875 -6.84375 C 0.546875 -8.363281 0.863281 -9.6875 1.5 -10.8125 C 2.132812 -11.945312 3.023438 -12.828125 4.171875 -13.453125 C 5.328125 -14.085938 6.671875 -14.40625 8.203125 -14.40625 C 9.597656 -14.40625 10.816406 -14.109375 11.859375 -13.515625 C 12.910156 -12.929688 13.726562 -12.113281 14.3125 -11.0625 C 14.894531 -10.019531 15.1875 -8.789062 15.1875 -7.375 C 15.1875 -5.882812 14.878906 -4.570312 14.265625 -3.4375 C 13.660156 -2.300781 12.8125 -1.410156 11.71875 -0.765625 C 10.625 -0.128906 9.359375 0.191406 7.921875 0.203125 Z M 7.8125 -3.296875 C 8.84375 -3.296875 9.65625 -3.660156 10.25 -4.390625 C 10.851562 -5.117188 11.15625 -6.085938 11.15625 -7.296875 C 11.15625 -8.390625 10.867188 -9.265625 10.296875 -9.921875 C 9.734375 -10.578125 8.984375 -10.90625 8.046875 -10.90625 C 7.347656 -10.90625 6.738281 -10.734375 6.21875 -10.390625 C 5.695312 -10.046875 5.289062 -9.578125 5 -8.984375 C 4.71875 -8.390625 4.578125 -7.707031 4.578125 -6.9375 C 4.578125 -5.789062 4.863281 -4.894531 5.4375 -4.25 C 6.007812 -3.613281 6.800781 -3.296875 7.8125 -3.296875 Z M 7.8125 -3.296875 "/></g></g></g><g fill="#ff914d" fill-opacity="1"><g transform="translate(187.266525, 259.730491)"><g><path d="M 1.234375 0 L 1.65625 -14.203125 L 4.921875 -14.203125 L 9.6875 -4.9375 L 14.359375 -14.203125 L 17.625 -14.203125 L 17.921875 0 L 14.0625 0 L 13.9375 -5.9375 L 10.90625 0 L 8.09375 0 L 5.078125 -5.84375 L 4.90625 0 Z M 1.234375 0 "/></g></g></g><g fill="#ff914d" fill-opacity="1"><g transform="translate(211.438963, 259.730491)"><g><path d="M 11.5625 -10.78125 L 5.140625 -10.78125 L 5.140625 -8.84375 L 11.046875 -8.84375 L 11.046875 -5.421875 L 5.140625 -5.421875 L 5.140625 -3.421875 L 11.71875 -3.421875 L 11.484375 0 L 1.203125 0 L 1.203125 -14.203125 L 11.5625 -14.203125 Z M 11.5625 -10.78125 "/></g></g></g><g fill="#ff914d" fill-opacity="1"><g transform="translate(228.334275, 259.730491)"><g/></g></g><g fill="#ff914d" fill-opacity="1"><g transform="translate(238.572216, 259.730491)"><g><path d="M 14.234375 -2.8125 C 13.617188 -1.84375 12.78125 -1.09375 11.71875 -0.5625 C 10.65625 -0.0390625 9.46875 0.21875 8.15625 0.21875 C 6.5625 0.21875 5.191406 -0.0546875 4.046875 -0.609375 C 2.910156 -1.171875 2.039062 -1.976562 1.4375 -3.03125 C 0.84375 -4.09375 0.546875 -5.347656 0.546875 -6.796875 C 0.546875 -8.328125 0.875 -9.660156 1.53125 -10.796875 C 2.1875 -11.929688 3.109375 -12.816406 4.296875 -13.453125 C 5.484375 -14.085938 6.863281 -14.40625 8.4375 -14.40625 C 9.820312 -14.40625 10.988281 -14.160156 11.9375 -13.671875 C 12.882812 -13.179688 13.660156 -12.429688 14.265625 -11.421875 L 11.234375 -9.28125 C 10.984375 -9.769531 10.59375 -10.15625 10.0625 -10.4375 C 9.53125 -10.726562 8.941406 -10.875 8.296875 -10.875 C 7.128906 -10.894531 6.21875 -10.535156 5.5625 -9.796875 C 4.914062 -9.054688 4.59375 -8.09375 4.59375 -6.90625 C 4.59375 -5.769531 4.890625 -4.882812 5.484375 -4.25 C 6.078125 -3.613281 6.976562 -3.296875 8.1875 -3.296875 C 9.570312 -3.296875 10.609375 -3.894531 11.296875 -5.09375 Z M 14.234375 -2.8125 "/></g></g></g><g fill="#ff914d" fill-opacity="1"><g transform="translate(257.426768, 259.730491)"><g><path d="M 1.203125 0 L 1.203125 -14.203125 L 5.203125 -14.203125 L 5.203125 -8.859375 L 10.28125 -8.859375 L 10.28125 -14.203125 L 14.28125 -14.203125 L 14.28125 0 L 10.28125 0 L 10.28125 -5.40625 L 5.203125 -5.40625 L 5.203125 0 Z M 1.203125 0 "/></g></g></g><g fill="#ff914d" fill-opacity="1"><g transform="translate(277.900681, 259.730491)"><g><path d="M 11.5625 -10.78125 L 5.140625 -10.78125 L 5.140625 -8.84375 L 11.046875 -8.84375 L 11.046875 -5.421875 L 5.140625 -5.421875 L 5.140625 -3.421875 L 11.71875 -3.421875 L 11.484375 0 L 1.203125 0 L 1.203125 -14.203125 L 11.5625 -14.203125 Z M 11.5625 -10.78125 "/></g></g></g><g fill="#ff914d" fill-opacity="1"><g transform="translate(294.796005, 259.730491)"><g><path d="M 14.234375 -2.8125 C 13.617188 -1.84375 12.78125 -1.09375 11.71875 -0.5625 C 10.65625 -0.0390625 9.46875 0.21875 8.15625 0.21875 C 6.5625 0.21875 5.191406 -0.0546875 4.046875 -0.609375 C 2.910156 -1.171875 2.039062 -1.976562 1.4375 -3.03125 C 0.84375 -4.09375 0.546875 -5.347656 0.546875 -6.796875 C 0.546875 -8.328125 0.875 -9.660156 1.53125 -10.796875 C 2.1875 -11.929688 3.109375 -12.816406 4.296875 -13.453125 C 5.484375 -14.085938 6.863281 -14.40625 8.4375 -14.40625 C 9.820312 -14.40625 10.988281 -14.160156 11.9375 -13.671875 C 12.882812 -13.179688 13.660156 -12.429688 14.265625 -11.421875 L 11.234375 -9.28125 C 10.984375 -9.769531 10.59375 -10.15625 10.0625 -10.4375 C 9.53125 -10.726562 8.941406 -10.875 8.296875 -10.875 C 7.128906 -10.894531 6.21875 -10.535156 5.5625 -9.796875 C 4.914062 -9.054688 4.59375 -8.09375 4.59375 -6.90625 C 4.59375 -5.769531 4.890625 -4.882812 5.484375 -4.25 C 6.078125 -3.613281 6.976562 -3.296875 8.1875 -3.296875 C 9.570312 -3.296875 10.609375 -3.894531 11.296875 -5.09375 Z M 14.234375 -2.8125 "/></g></g></g><g fill="#ff914d" fill-opacity="1"><g transform="translate(313.650557, 259.730491)"><g><path d="M 1.203125 0 L 1.203125 -14.203125 L 5.203125 -14.203125 L 5.203125 -8.296875 L 10.265625 -14.203125 L 15.015625 -14.203125 L 8.8125 -7.078125 C 9.132812 -6.898438 9.421875 -6.675781 9.671875 -6.40625 C 9.929688 -6.144531 10.15625 -5.859375 10.34375 -5.546875 L 11.125 -4.203125 C 11.46875 -3.578125 11.992188 -3.265625 12.703125 -3.265625 C 13.273438 -3.265625 13.785156 -3.40625 14.234375 -3.6875 L 15.15625 -0.59375 C 14.84375 -0.34375 14.414062 -0.144531 13.875 0 C 13.34375 0.15625 12.804688 0.234375 12.265625 0.234375 C 10.242188 0.234375 8.800781 -0.503906 7.9375 -1.984375 L 6.640625 -4.203125 C 6.421875 -4.554688 6.210938 -4.820312 6.015625 -5 C 5.816406 -5.1875 5.546875 -5.3125 5.203125 -5.375 L 5.203125 0 Z M 1.203125 0 "/></g></g></g></svg>